<?xml version="1.0" standalone="no"?>
<!DOCTYPE svg PUBLIC "-//W3C//DTD SVG 20010904//EN"
 "http://www.w3.org/TR/2001/REC-SVG-20010904/DTD/svg10.dtd">
<svg version="1.0" xmlns="http://www.w3.org/2000/svg"
 width="16.000000pt" height="16.000000pt" viewBox="0 0 16.000000 16.000000"
 preserveAspectRatio="xMidYMid meet">
  <path fill="#000000" d="M11.68 0.89L12.72 1.54L13.66 2.34L14.46 3.28L15.11 4.32L15.59 5.47L15.9 6.7L16 8L15.9 9.3L15.59 10.53L15.11 11.68L14.46 12.72L13.66 13.66L12.72 14.46L11.68 15.11L10.53 15.59L9.3 15.9L8 16L6.7 15.9L5.47 15.59L4.32 15.11L3.28 14.46L2.34 13.66L1.54 12.72L0.89 11.68L0.41 10.53L0.1 9.3L0 8L0.1 6.7L0.41 5.47L0.89 4.32L1.54 3.28L2.34 2.34L3.28 1.54L4.32 0.89L5.47 0.41L6.7 0.1L8 0L9.3 0.1L10.53 0.41L10.53 0.41L11.68 0.89ZM9.28 10.86L5.93 10.86L12.05 3.51L11.13 2.76L3.18 12.09L9.28 12.09L9.28 12.09L9.28 10.86Z" id="ajytuTKVh"></path>
</svg>
